%TF.GenerationSoftware,KiCad,Pcbnew,8.0.1*%
%TF.CreationDate,2024-04-21T10:41:17+07:00*%
%TF.ProjectId,RIFD_Final,52494644-5f46-4696-9e61-6c2e6b696361,rev?*%
%TF.SameCoordinates,Original*%
%TF.FileFunction,Paste,Top*%
%TF.FilePolarity,Positive*%
%FSLAX46Y46*%
G04 Gerber Fmt 4.6, Leading zero omitted, Abs format (unit mm)*
G04 Created by KiCad (PCBNEW 8.0.1) date 2024-04-21 10:41:17*
%MOMM*%
%LPD*%
G01*
G04 APERTURE LIST*
%ADD10R,1.550000X1.300000*%
G04 APERTURE END LIST*
D10*
%TO.C,8*%
X88050000Y-49500000D03*
X96000000Y-49500000D03*
X88050000Y-54000000D03*
X96000000Y-54000000D03*
%TD*%
%TO.C,5*%
X88050000Y-41920000D03*
X96000000Y-41920000D03*
X88050000Y-46420000D03*
X96000000Y-46420000D03*
%TD*%
%TO.C,1*%
X77000000Y-34340000D03*
X84950000Y-34340000D03*
X77000000Y-38840000D03*
X84950000Y-38840000D03*
%TD*%
%TO.C,3*%
X99100000Y-34340000D03*
X107050000Y-34340000D03*
X99100000Y-38840000D03*
X107050000Y-38840000D03*
%TD*%
%TO.C,6*%
X99100000Y-41920000D03*
X107050000Y-41920000D03*
X99100000Y-46420000D03*
X107050000Y-46420000D03*
%TD*%
%TO.C,7*%
X77000000Y-49500000D03*
X84950000Y-49500000D03*
X77000000Y-54000000D03*
X84950000Y-54000000D03*
%TD*%
%TO.C,B*%
X110150000Y-41920000D03*
X118100000Y-41920000D03*
X110150000Y-46420000D03*
X118100000Y-46420000D03*
%TD*%
%TO.C,0*%
X88050000Y-57080000D03*
X96000000Y-57080000D03*
X88050000Y-61580000D03*
X96000000Y-61580000D03*
%TD*%
%TO.C,\u002A*%
X77000000Y-57080000D03*
X84950000Y-57080000D03*
X77000000Y-61580000D03*
X84950000Y-61580000D03*
%TD*%
%TO.C,2*%
X88050000Y-34340000D03*
X96000000Y-34340000D03*
X88050000Y-38840000D03*
X96000000Y-38840000D03*
%TD*%
%TO.C,9*%
X99100000Y-49500000D03*
X107050000Y-49500000D03*
X99100000Y-54000000D03*
X107050000Y-54000000D03*
%TD*%
%TO.C,4*%
X77000000Y-41920000D03*
X84950000Y-41920000D03*
X77000000Y-46420000D03*
X84950000Y-46420000D03*
%TD*%
%TO.C,C*%
X110150000Y-49500000D03*
X118100000Y-49500000D03*
X110150000Y-54000000D03*
X118100000Y-54000000D03*
%TD*%
%TO.C,D*%
X110150000Y-57080000D03*
X118100000Y-57080000D03*
X110150000Y-61580000D03*
X118100000Y-61580000D03*
%TD*%
%TO.C,#*%
X99100000Y-57080000D03*
X107050000Y-57080000D03*
X99100000Y-61580000D03*
X107050000Y-61580000D03*
%TD*%
%TO.C,A*%
X110150000Y-34340000D03*
X118100000Y-34340000D03*
X110150000Y-38840000D03*
X118100000Y-38840000D03*
%TD*%
M02*
