M48
; DRILL file {KiCad 8.0.1} date 2024-04-21T10:41:49+0700
; FORMAT={-:-/ absolute / inch / decimal}
; #@! TF.CreationDate,2024-04-21T10:41:49+07:00
; #@! TF.GenerationSoftware,Kicad,Pcbnew,8.0.1
; #@! TF.FileFunction,Plated,1,2,PTH
FMAT,2
INCH
; #@! TA.AperFunction,Plated,PTH,ViaDrill
T1C0.0118
; #@! TA.AperFunction,Plated,PTH,ComponentDrill
T2C0.0394
%
G90
G05
T1
X2.815Y-4.815
X2.8622Y-2.9252
X2.8622Y-4.6929
X2.8937Y-2.8937
X2.9173Y-2.8543
X2.9213Y-2.9764
X3.185Y-3.0433
X3.4085Y-3.1831
X3.4872Y-2.9892
X3.4994Y-2.6467
X3.5069Y-3.5226
X3.5148Y-2.938
X3.5512Y-2.8307
X3.5748Y-2.7244
X3.6024Y-3.1831
X3.6053Y-3.0325
X3.6063Y-2.7126
X3.6811Y-2.7008
X3.688Y-3.1703
X3.6969Y-3.0433
X3.7514Y-2.6781
X3.7598Y-2.7717
X3.8022Y-3.2884
X3.8071Y-3.4921
X3.8222Y-2.6585
X3.838Y-2.753
X3.8455Y-3.1781
X3.8809Y-3.1191
X3.8813Y-2.7608
X3.9281Y-3.3593
X3.9409Y-2.7638
X3.9409Y-2.8346
X3.9764Y-3.6929
X4.0427Y-3.277
X4.3297Y-3.1388
X4.4646Y-3.7835
X4.4675Y-3.375
X4.5079Y-3.6496
X4.8583Y-3.7205
X4.8622Y-3.0945
X4.9478Y-3.3553
X4.9488Y-4.1614
X5.0079Y-1.5709
X5.0187Y-3.1703
X5.0226Y-3.3435
X5.0384Y-2.8907
X5.0472Y-3.9528
X5.0787Y-1.4843
X5.1693Y-3.874
X5.1811Y-2.3937
X5.2638Y-3.3189
X5.2795Y-4.3543
X5.3179Y-3.1585
X5.436Y-3.3474
X5.5157Y-2.1614
X5.6053Y-3.0994
X5.625Y-3.312
X5.6614Y-4.248
X5.685Y-3.063
X5.7874Y-3.6102
X5.8465Y-3.7126
X5.8976Y-3.5197
X5.9252Y-4.7598
X6.4213Y-4.3189
T2
X2.9827Y-3.937
X2.9858Y-4.9409
X3.0827Y-3.937
X3.0858Y-4.9409
X3.1827Y-3.937
X3.1858Y-4.9409
X3.2827Y-3.937
X3.2858Y-4.9409
X3.3827Y-3.937
X3.3858Y-4.9409
X3.4827Y-3.937
X3.4858Y-4.9409
X3.5827Y-3.937
X3.5858Y-4.9409
X3.6827Y-3.937
X3.6858Y-4.9409
X3.7827Y-3.937
X3.7858Y-4.9409
X3.8827Y-3.937
X3.8858Y-4.9409
X3.9827Y-3.937
X3.9858Y-4.9409
X4.0827Y-3.937
X4.0858Y-4.9409
X4.1827Y-3.937
X4.1858Y-4.9409
X4.2827Y-3.937
X4.2858Y-4.9409
X4.3827Y-3.937
X4.3858Y-4.9409
X4.9055Y-1.3673
X4.9055Y-1.4673
X4.9055Y-1.5673
X4.9055Y-1.6673
X5.3016Y-2.4606
X5.4016Y-2.4606
X5.5016Y-2.4606
X5.6016Y-2.4606
X5.7016Y-2.4606
X5.8016Y-2.4606
X5.9016Y-2.4606
X6.0016Y-2.4606
X6.0504Y-4.7992
X6.1504Y-4.7992
X6.2504Y-4.7992
X6.3504Y-4.7992
T2
G00X5.4764Y-4.565
M15
G01X5.4764Y-4.4783
M16
G05
G00X5.7165Y-4.4075
M15
G01X5.6142Y-4.4075
M16
G05
G00X5.7087Y-4.6555
M15
G01X5.622Y-4.6555
M16
G05
M30
