%TF.GenerationSoftware,KiCad,Pcbnew,8.0.1*%
%TF.CreationDate,2024-04-21T10:41:17+07:00*%
%TF.ProjectId,RIFD_Final,52494644-5f46-4696-9e61-6c2e6b696361,rev?*%
%TF.SameCoordinates,Original*%
%TF.FileFunction,Soldermask,Bot*%
%TF.FilePolarity,Negative*%
%FSLAX46Y46*%
G04 Gerber Fmt 4.6, Leading zero omitted, Abs format (unit mm)*
G04 Created by KiCad (PCBNEW 8.0.1) date 2024-04-21 10:41:17*
%MOMM*%
%LPD*%
G01*
G04 APERTURE LIST*
G04 Aperture macros list*
%AMRoundRect*
0 Rectangle with rounded corners*
0 $1 Rounding radius*
0 $2 $3 $4 $5 $6 $7 $8 $9 X,Y pos of 4 corners*
0 Add a 4 corners polygon primitive as box body*
4,1,4,$2,$3,$4,$5,$6,$7,$8,$9,$2,$3,0*
0 Add four circle primitives for the rounded corners*
1,1,$1+$1,$2,$3*
1,1,$1+$1,$4,$5*
1,1,$1+$1,$6,$7*
1,1,$1+$1,$8,$9*
0 Add four rect primitives between the rounded corners*
20,1,$1+$1,$2,$3,$4,$5,0*
20,1,$1+$1,$4,$5,$6,$7,0*
20,1,$1+$1,$6,$7,$8,$9,0*
20,1,$1+$1,$8,$9,$2,$3,0*%
G04 Aperture macros list end*
%ADD10R,1.700000X1.700000*%
%ADD11O,1.700000X1.700000*%
%ADD12RoundRect,0.250000X0.250000X0.475000X-0.250000X0.475000X-0.250000X-0.475000X0.250000X-0.475000X0*%
%ADD13RoundRect,0.075000X0.075000X-0.662500X0.075000X0.662500X-0.075000X0.662500X-0.075000X-0.662500X0*%
%ADD14RoundRect,0.075000X0.662500X-0.075000X0.662500X0.075000X-0.662500X0.075000X-0.662500X-0.075000X0*%
%ADD15RoundRect,0.243750X0.243750X0.456250X-0.243750X0.456250X-0.243750X-0.456250X0.243750X-0.456250X0*%
%ADD16RoundRect,0.375000X0.625000X0.375000X-0.625000X0.375000X-0.625000X-0.375000X0.625000X-0.375000X0*%
%ADD17RoundRect,0.500000X0.500000X1.400000X-0.500000X1.400000X-0.500000X-1.400000X0.500000X-1.400000X0*%
%ADD18RoundRect,0.250000X0.262500X0.450000X-0.262500X0.450000X-0.262500X-0.450000X0.262500X-0.450000X0*%
%ADD19R,4.600000X2.000000*%
%ADD20O,4.200000X2.000000*%
%ADD21O,2.000000X4.200000*%
%ADD22R,2.000000X2.400000*%
%ADD23R,1.550000X1.300000*%
%ADD24RoundRect,0.250000X0.475000X-0.250000X0.475000X0.250000X-0.475000X0.250000X-0.475000X-0.250000X0*%
%ADD25RoundRect,0.250000X0.262500X1.775000X-0.262500X1.775000X-0.262500X-1.775000X0.262500X-1.775000X0*%
%ADD26RoundRect,0.250000X0.325000X0.450000X-0.325000X0.450000X-0.325000X-0.450000X0.325000X-0.450000X0*%
G04 APERTURE END LIST*
D10*
%TO.C,J1*%
X124600000Y-42350000D03*
D11*
X124600000Y-39810000D03*
X124600000Y-37270000D03*
X124600000Y-34730000D03*
%TD*%
D10*
%TO.C,J5*%
X75840000Y-125500000D03*
D11*
X78380000Y-125500000D03*
X80920000Y-125500000D03*
X83460000Y-125500000D03*
X86000000Y-125500000D03*
X88540000Y-125500000D03*
X91080000Y-125500000D03*
X93620000Y-125500000D03*
X96160000Y-125500000D03*
X98700000Y-125500000D03*
X101240000Y-125500000D03*
X103780000Y-125500000D03*
X106320000Y-125500000D03*
X108860000Y-125500000D03*
X111400000Y-125500000D03*
%TD*%
D10*
%TO.C,J4*%
X75760000Y-100000000D03*
D11*
X78300000Y-100000000D03*
X80840000Y-100000000D03*
X83380000Y-100000000D03*
X85920000Y-100000000D03*
X88460000Y-100000000D03*
X91000000Y-100000000D03*
X93540000Y-100000000D03*
X96080000Y-100000000D03*
X98620000Y-100000000D03*
X101160000Y-100000000D03*
X103700000Y-100000000D03*
X106240000Y-100000000D03*
X108780000Y-100000000D03*
X111320000Y-100000000D03*
%TD*%
D10*
%TO.C,J2*%
X134660000Y-62500000D03*
D11*
X137200000Y-62500000D03*
X139740000Y-62500000D03*
X142280000Y-62500000D03*
X144820000Y-62500000D03*
X147360000Y-62500000D03*
X149900000Y-62500000D03*
X152440000Y-62500000D03*
%TD*%
D12*
%TO.C,C2*%
X115355000Y-77535000D03*
X113455000Y-77535000D03*
%TD*%
D13*
%TO.C,U3*%
X94162500Y-78937500D03*
X93662500Y-78937500D03*
X93162500Y-78937500D03*
X92662500Y-78937500D03*
X92162500Y-78937500D03*
X91662500Y-78937500D03*
X91162500Y-78937500D03*
X90662500Y-78937500D03*
X90162500Y-78937500D03*
X89662500Y-78937500D03*
X89162500Y-78937500D03*
X88662500Y-78937500D03*
D14*
X87250000Y-77525000D03*
X87250000Y-77025000D03*
X87250000Y-76525000D03*
X87250000Y-76025000D03*
X87250000Y-75525000D03*
X87250000Y-75025000D03*
X87250000Y-74525000D03*
X87250000Y-74025000D03*
X87250000Y-73525000D03*
X87250000Y-73025000D03*
X87250000Y-72525000D03*
X87250000Y-72025000D03*
D13*
X88662500Y-70612500D03*
X89162500Y-70612500D03*
X89662500Y-70612500D03*
X90162500Y-70612500D03*
X90662500Y-70612500D03*
X91162500Y-70612500D03*
X91662500Y-70612500D03*
X92162500Y-70612500D03*
X92662500Y-70612500D03*
X93162500Y-70612500D03*
X93662500Y-70612500D03*
X94162500Y-70612500D03*
D14*
X95575000Y-72025000D03*
X95575000Y-72525000D03*
X95575000Y-73025000D03*
X95575000Y-73525000D03*
X95575000Y-74025000D03*
X95575000Y-74525000D03*
X95575000Y-75025000D03*
X95575000Y-75525000D03*
X95575000Y-76025000D03*
X95575000Y-76525000D03*
X95575000Y-77025000D03*
X95575000Y-77525000D03*
%TD*%
D12*
%TO.C,C5*%
X112500000Y-87500000D03*
X110600000Y-87500000D03*
%TD*%
D15*
%TO.C,D2*%
X137100000Y-72950000D03*
X135225000Y-72950000D03*
%TD*%
D16*
%TO.C,U1*%
X146225000Y-76425000D03*
X146225000Y-78725000D03*
D17*
X139925000Y-78725000D03*
D16*
X146225000Y-81025000D03*
%TD*%
D12*
%TO.C,C1*%
X134925000Y-96575000D03*
X133025000Y-96575000D03*
%TD*%
%TO.C,C6*%
X127075000Y-92335000D03*
X125175000Y-92335000D03*
%TD*%
%TO.C,C7*%
X127075000Y-95345000D03*
X125175000Y-95345000D03*
%TD*%
D16*
%TO.C,U2*%
X146225000Y-84750000D03*
X146225000Y-87050000D03*
D17*
X139925000Y-87050000D03*
D16*
X146225000Y-89350000D03*
%TD*%
D10*
%TO.C,J6*%
X153680000Y-121900000D03*
D11*
X156220000Y-121900000D03*
X158760000Y-121900000D03*
X161300000Y-121900000D03*
%TD*%
D12*
%TO.C,C7*%
X134675000Y-90075000D03*
X132775000Y-90075000D03*
%TD*%
%TO.C,C5*%
X127075000Y-89325000D03*
X125175000Y-89325000D03*
%TD*%
D18*
%TO.C,R1*%
X125987500Y-80515000D03*
X124162500Y-80515000D03*
%TD*%
D15*
%TO.C,F1*%
X101712500Y-86925000D03*
X99837500Y-86925000D03*
%TD*%
D19*
%TO.C,J3*%
X143900000Y-111950000D03*
D20*
X143900000Y-118250000D03*
D21*
X139100000Y-114850000D03*
%TD*%
D12*
%TO.C,C3*%
X115355000Y-80545000D03*
X113455000Y-80545000D03*
%TD*%
D18*
%TO.C,R6*%
X121160000Y-89520000D03*
X119335000Y-89520000D03*
%TD*%
D22*
%TO.C,Y1*%
X83650000Y-81500000D03*
X79950000Y-81500000D03*
%TD*%
D23*
%TO.C,Button_RS1*%
X161225000Y-108000000D03*
X153275000Y-108000000D03*
X161225000Y-112500000D03*
X153275000Y-112500000D03*
%TD*%
D12*
%TO.C,10u1*%
X82935000Y-89850000D03*
X81035000Y-89850000D03*
%TD*%
%TO.C,C4*%
X115355000Y-83555000D03*
X113455000Y-83555000D03*
%TD*%
%TO.C,C11*%
X105000000Y-93800000D03*
X103100000Y-93800000D03*
%TD*%
D18*
%TO.C,R7*%
X101000000Y-90300000D03*
X99175000Y-90300000D03*
%TD*%
D24*
%TO.C,C9*%
X95075000Y-85025000D03*
X95075000Y-83125000D03*
%TD*%
%TO.C,C12*%
X89055000Y-85025000D03*
X89055000Y-83125000D03*
%TD*%
D25*
%TO.C,R4*%
X106575000Y-78525000D03*
X104700000Y-78525000D03*
%TD*%
D18*
%TO.C,R3*%
X132500000Y-73050000D03*
X130675000Y-73050000D03*
%TD*%
D12*
%TO.C,C8*%
X134675000Y-93085000D03*
X132775000Y-93085000D03*
%TD*%
%TO.C,C8*%
X120975000Y-93125000D03*
X119075000Y-93125000D03*
%TD*%
D26*
%TO.C,D1*%
X121475000Y-77610000D03*
X119425000Y-77610000D03*
%TD*%
D25*
%TO.C,R5*%
X102512500Y-78525000D03*
X100637500Y-78525000D03*
%TD*%
D18*
%TO.C,R2*%
X125987500Y-83465000D03*
X124162500Y-83465000D03*
%TD*%
D24*
%TO.C,C10*%
X92065000Y-85025000D03*
X92065000Y-83125000D03*
%TD*%
D12*
%TO.C,C6*%
X134675000Y-87065000D03*
X132775000Y-87065000D03*
%TD*%
M02*
