%TF.GenerationSoftware,KiCad,Pcbnew,8.0.1*%
%TF.CreationDate,2024-04-21T10:41:17+07:00*%
%TF.ProjectId,RIFD_Final,52494644-5f46-4696-9e61-6c2e6b696361,rev?*%
%TF.SameCoordinates,Original*%
%TF.FileFunction,Legend,Top*%
%TF.FilePolarity,Positive*%
%FSLAX46Y46*%
G04 Gerber Fmt 4.6, Leading zero omitted, Abs format (unit mm)*
G04 Created by KiCad (PCBNEW 8.0.1) date 2024-04-21 10:41:17*
%MOMM*%
%LPD*%
G01*
G04 APERTURE LIST*
%ADD10C,0.150000*%
%ADD11C,0.120000*%
G04 APERTURE END LIST*
D10*
X91929762Y-48006033D02*
X91834524Y-47972700D01*
X91834524Y-47972700D02*
X91786905Y-47939366D01*
X91786905Y-47939366D02*
X91739286Y-47872700D01*
X91739286Y-47872700D02*
X91739286Y-47839366D01*
X91739286Y-47839366D02*
X91786905Y-47772700D01*
X91786905Y-47772700D02*
X91834524Y-47739366D01*
X91834524Y-47739366D02*
X91929762Y-47706033D01*
X91929762Y-47706033D02*
X92120238Y-47706033D01*
X92120238Y-47706033D02*
X92215476Y-47739366D01*
X92215476Y-47739366D02*
X92263095Y-47772700D01*
X92263095Y-47772700D02*
X92310714Y-47839366D01*
X92310714Y-47839366D02*
X92310714Y-47872700D01*
X92310714Y-47872700D02*
X92263095Y-47939366D01*
X92263095Y-47939366D02*
X92215476Y-47972700D01*
X92215476Y-47972700D02*
X92120238Y-48006033D01*
X92120238Y-48006033D02*
X91929762Y-48006033D01*
X91929762Y-48006033D02*
X91834524Y-48039366D01*
X91834524Y-48039366D02*
X91786905Y-48072700D01*
X91786905Y-48072700D02*
X91739286Y-48139366D01*
X91739286Y-48139366D02*
X91739286Y-48272700D01*
X91739286Y-48272700D02*
X91786905Y-48339366D01*
X91786905Y-48339366D02*
X91834524Y-48372700D01*
X91834524Y-48372700D02*
X91929762Y-48406033D01*
X91929762Y-48406033D02*
X92120238Y-48406033D01*
X92120238Y-48406033D02*
X92215476Y-48372700D01*
X92215476Y-48372700D02*
X92263095Y-48339366D01*
X92263095Y-48339366D02*
X92310714Y-48272700D01*
X92310714Y-48272700D02*
X92310714Y-48139366D01*
X92310714Y-48139366D02*
X92263095Y-48072700D01*
X92263095Y-48072700D02*
X92215476Y-48039366D01*
X92215476Y-48039366D02*
X92120238Y-48006033D01*
X92263095Y-40006033D02*
X91786905Y-40006033D01*
X91786905Y-40006033D02*
X91739286Y-40339366D01*
X91739286Y-40339366D02*
X91786905Y-40306033D01*
X91786905Y-40306033D02*
X91882143Y-40272700D01*
X91882143Y-40272700D02*
X92120238Y-40272700D01*
X92120238Y-40272700D02*
X92215476Y-40306033D01*
X92215476Y-40306033D02*
X92263095Y-40339366D01*
X92263095Y-40339366D02*
X92310714Y-40406033D01*
X92310714Y-40406033D02*
X92310714Y-40572700D01*
X92310714Y-40572700D02*
X92263095Y-40639366D01*
X92263095Y-40639366D02*
X92215476Y-40672700D01*
X92215476Y-40672700D02*
X92120238Y-40706033D01*
X92120238Y-40706033D02*
X91882143Y-40706033D01*
X91882143Y-40706033D02*
X91786905Y-40672700D01*
X91786905Y-40672700D02*
X91739286Y-40639366D01*
X81260714Y-33206033D02*
X80689286Y-33206033D01*
X80975000Y-33206033D02*
X80975000Y-32506033D01*
X80975000Y-32506033D02*
X80879762Y-32606033D01*
X80879762Y-32606033D02*
X80784524Y-32672700D01*
X80784524Y-32672700D02*
X80689286Y-32706033D01*
X102741667Y-32506033D02*
X103360714Y-32506033D01*
X103360714Y-32506033D02*
X103027381Y-32772700D01*
X103027381Y-32772700D02*
X103170238Y-32772700D01*
X103170238Y-32772700D02*
X103265476Y-32806033D01*
X103265476Y-32806033D02*
X103313095Y-32839366D01*
X103313095Y-32839366D02*
X103360714Y-32906033D01*
X103360714Y-32906033D02*
X103360714Y-33072700D01*
X103360714Y-33072700D02*
X103313095Y-33139366D01*
X103313095Y-33139366D02*
X103265476Y-33172700D01*
X103265476Y-33172700D02*
X103170238Y-33206033D01*
X103170238Y-33206033D02*
X102884524Y-33206033D01*
X102884524Y-33206033D02*
X102789286Y-33172700D01*
X102789286Y-33172700D02*
X102741667Y-33139366D01*
X128646666Y-44574819D02*
X128646666Y-45289104D01*
X128646666Y-45289104D02*
X128599047Y-45431961D01*
X128599047Y-45431961D02*
X128503809Y-45527200D01*
X128503809Y-45527200D02*
X128360952Y-45574819D01*
X128360952Y-45574819D02*
X128265714Y-45574819D01*
X129646666Y-45574819D02*
X129075238Y-45574819D01*
X129360952Y-45574819D02*
X129360952Y-44574819D01*
X129360952Y-44574819D02*
X129265714Y-44717676D01*
X129265714Y-44717676D02*
X129170476Y-44812914D01*
X129170476Y-44812914D02*
X129075238Y-44860533D01*
X103265476Y-40106033D02*
X103075000Y-40106033D01*
X103075000Y-40106033D02*
X102979762Y-40139366D01*
X102979762Y-40139366D02*
X102932143Y-40172700D01*
X102932143Y-40172700D02*
X102836905Y-40272700D01*
X102836905Y-40272700D02*
X102789286Y-40406033D01*
X102789286Y-40406033D02*
X102789286Y-40672700D01*
X102789286Y-40672700D02*
X102836905Y-40739366D01*
X102836905Y-40739366D02*
X102884524Y-40772700D01*
X102884524Y-40772700D02*
X102979762Y-40806033D01*
X102979762Y-40806033D02*
X103170238Y-40806033D01*
X103170238Y-40806033D02*
X103265476Y-40772700D01*
X103265476Y-40772700D02*
X103313095Y-40739366D01*
X103313095Y-40739366D02*
X103360714Y-40672700D01*
X103360714Y-40672700D02*
X103360714Y-40506033D01*
X103360714Y-40506033D02*
X103313095Y-40439366D01*
X103313095Y-40439366D02*
X103265476Y-40406033D01*
X103265476Y-40406033D02*
X103170238Y-40372700D01*
X103170238Y-40372700D02*
X102979762Y-40372700D01*
X102979762Y-40372700D02*
X102884524Y-40406033D01*
X102884524Y-40406033D02*
X102836905Y-40439366D01*
X102836905Y-40439366D02*
X102789286Y-40506033D01*
X72524819Y-125833333D02*
X73239104Y-125833333D01*
X73239104Y-125833333D02*
X73381961Y-125880952D01*
X73381961Y-125880952D02*
X73477200Y-125976190D01*
X73477200Y-125976190D02*
X73524819Y-126119047D01*
X73524819Y-126119047D02*
X73524819Y-126214285D01*
X72524819Y-124880952D02*
X72524819Y-125357142D01*
X72524819Y-125357142D02*
X73001009Y-125404761D01*
X73001009Y-125404761D02*
X72953390Y-125357142D01*
X72953390Y-125357142D02*
X72905771Y-125261904D01*
X72905771Y-125261904D02*
X72905771Y-125023809D01*
X72905771Y-125023809D02*
X72953390Y-124928571D01*
X72953390Y-124928571D02*
X73001009Y-124880952D01*
X73001009Y-124880952D02*
X73096247Y-124833333D01*
X73096247Y-124833333D02*
X73334342Y-124833333D01*
X73334342Y-124833333D02*
X73429580Y-124880952D01*
X73429580Y-124880952D02*
X73477200Y-124928571D01*
X73477200Y-124928571D02*
X73524819Y-125023809D01*
X73524819Y-125023809D02*
X73524819Y-125261904D01*
X73524819Y-125261904D02*
X73477200Y-125357142D01*
X73477200Y-125357142D02*
X73429580Y-125404761D01*
X80641667Y-47706033D02*
X81308333Y-47706033D01*
X81308333Y-47706033D02*
X80879762Y-48406033D01*
X114196428Y-40439366D02*
X114339285Y-40472700D01*
X114339285Y-40472700D02*
X114386904Y-40506033D01*
X114386904Y-40506033D02*
X114434523Y-40572700D01*
X114434523Y-40572700D02*
X114434523Y-40672700D01*
X114434523Y-40672700D02*
X114386904Y-40739366D01*
X114386904Y-40739366D02*
X114339285Y-40772700D01*
X114339285Y-40772700D02*
X114244047Y-40806033D01*
X114244047Y-40806033D02*
X113863095Y-40806033D01*
X113863095Y-40806033D02*
X113863095Y-40106033D01*
X113863095Y-40106033D02*
X114196428Y-40106033D01*
X114196428Y-40106033D02*
X114291666Y-40139366D01*
X114291666Y-40139366D02*
X114339285Y-40172700D01*
X114339285Y-40172700D02*
X114386904Y-40239366D01*
X114386904Y-40239366D02*
X114386904Y-40306033D01*
X114386904Y-40306033D02*
X114339285Y-40372700D01*
X114339285Y-40372700D02*
X114291666Y-40406033D01*
X114291666Y-40406033D02*
X114196428Y-40439366D01*
X114196428Y-40439366D02*
X113863095Y-40439366D01*
X91977381Y-55306033D02*
X92072619Y-55306033D01*
X92072619Y-55306033D02*
X92167857Y-55339366D01*
X92167857Y-55339366D02*
X92215476Y-55372700D01*
X92215476Y-55372700D02*
X92263095Y-55439366D01*
X92263095Y-55439366D02*
X92310714Y-55572700D01*
X92310714Y-55572700D02*
X92310714Y-55739366D01*
X92310714Y-55739366D02*
X92263095Y-55872700D01*
X92263095Y-55872700D02*
X92215476Y-55939366D01*
X92215476Y-55939366D02*
X92167857Y-55972700D01*
X92167857Y-55972700D02*
X92072619Y-56006033D01*
X92072619Y-56006033D02*
X91977381Y-56006033D01*
X91977381Y-56006033D02*
X91882143Y-55972700D01*
X91882143Y-55972700D02*
X91834524Y-55939366D01*
X91834524Y-55939366D02*
X91786905Y-55872700D01*
X91786905Y-55872700D02*
X91739286Y-55739366D01*
X91739286Y-55739366D02*
X91739286Y-55572700D01*
X91739286Y-55572700D02*
X91786905Y-55439366D01*
X91786905Y-55439366D02*
X91834524Y-55372700D01*
X91834524Y-55372700D02*
X91882143Y-55339366D01*
X91882143Y-55339366D02*
X91977381Y-55306033D01*
X71954819Y-100333333D02*
X72669104Y-100333333D01*
X72669104Y-100333333D02*
X72811961Y-100380952D01*
X72811961Y-100380952D02*
X72907200Y-100476190D01*
X72907200Y-100476190D02*
X72954819Y-100619047D01*
X72954819Y-100619047D02*
X72954819Y-100714285D01*
X72288152Y-99428571D02*
X72954819Y-99428571D01*
X71907200Y-99666666D02*
X72621485Y-99904761D01*
X72621485Y-99904761D02*
X72621485Y-99285714D01*
X80975000Y-55506033D02*
X80975000Y-55672700D01*
X80736905Y-55606033D02*
X80975000Y-55672700D01*
X80975000Y-55672700D02*
X81213095Y-55606033D01*
X80832143Y-55806033D02*
X80975000Y-55672700D01*
X80975000Y-55672700D02*
X81117857Y-55806033D01*
X91739286Y-32572700D02*
X91786905Y-32539366D01*
X91786905Y-32539366D02*
X91882143Y-32506033D01*
X91882143Y-32506033D02*
X92120238Y-32506033D01*
X92120238Y-32506033D02*
X92215476Y-32539366D01*
X92215476Y-32539366D02*
X92263095Y-32572700D01*
X92263095Y-32572700D02*
X92310714Y-32639366D01*
X92310714Y-32639366D02*
X92310714Y-32706033D01*
X92310714Y-32706033D02*
X92263095Y-32806033D01*
X92263095Y-32806033D02*
X91691667Y-33206033D01*
X91691667Y-33206033D02*
X92310714Y-33206033D01*
X102884524Y-48406033D02*
X103075000Y-48406033D01*
X103075000Y-48406033D02*
X103170238Y-48372700D01*
X103170238Y-48372700D02*
X103217857Y-48339366D01*
X103217857Y-48339366D02*
X103313095Y-48239366D01*
X103313095Y-48239366D02*
X103360714Y-48106033D01*
X103360714Y-48106033D02*
X103360714Y-47839366D01*
X103360714Y-47839366D02*
X103313095Y-47772700D01*
X103313095Y-47772700D02*
X103265476Y-47739366D01*
X103265476Y-47739366D02*
X103170238Y-47706033D01*
X103170238Y-47706033D02*
X102979762Y-47706033D01*
X102979762Y-47706033D02*
X102884524Y-47739366D01*
X102884524Y-47739366D02*
X102836905Y-47772700D01*
X102836905Y-47772700D02*
X102789286Y-47839366D01*
X102789286Y-47839366D02*
X102789286Y-48006033D01*
X102789286Y-48006033D02*
X102836905Y-48072700D01*
X102836905Y-48072700D02*
X102884524Y-48106033D01*
X102884524Y-48106033D02*
X102979762Y-48139366D01*
X102979762Y-48139366D02*
X103170238Y-48139366D01*
X103170238Y-48139366D02*
X103265476Y-48106033D01*
X103265476Y-48106033D02*
X103313095Y-48072700D01*
X103313095Y-48072700D02*
X103360714Y-48006033D01*
X81065476Y-40339366D02*
X81065476Y-40806033D01*
X80827381Y-40072700D02*
X80589286Y-40572700D01*
X80589286Y-40572700D02*
X81208333Y-40572700D01*
X114434523Y-48239366D02*
X114386904Y-48272700D01*
X114386904Y-48272700D02*
X114244047Y-48306033D01*
X114244047Y-48306033D02*
X114148809Y-48306033D01*
X114148809Y-48306033D02*
X114005952Y-48272700D01*
X114005952Y-48272700D02*
X113910714Y-48206033D01*
X113910714Y-48206033D02*
X113863095Y-48139366D01*
X113863095Y-48139366D02*
X113815476Y-48006033D01*
X113815476Y-48006033D02*
X113815476Y-47906033D01*
X113815476Y-47906033D02*
X113863095Y-47772700D01*
X113863095Y-47772700D02*
X113910714Y-47706033D01*
X113910714Y-47706033D02*
X114005952Y-47639366D01*
X114005952Y-47639366D02*
X114148809Y-47606033D01*
X114148809Y-47606033D02*
X114244047Y-47606033D01*
X114244047Y-47606033D02*
X114386904Y-47639366D01*
X114386904Y-47639366D02*
X114434523Y-47672700D01*
X113863095Y-55906033D02*
X113863095Y-55206033D01*
X113863095Y-55206033D02*
X114101190Y-55206033D01*
X114101190Y-55206033D02*
X114244047Y-55239366D01*
X114244047Y-55239366D02*
X114339285Y-55306033D01*
X114339285Y-55306033D02*
X114386904Y-55372700D01*
X114386904Y-55372700D02*
X114434523Y-55506033D01*
X114434523Y-55506033D02*
X114434523Y-55606033D01*
X114434523Y-55606033D02*
X114386904Y-55739366D01*
X114386904Y-55739366D02*
X114339285Y-55806033D01*
X114339285Y-55806033D02*
X114244047Y-55872700D01*
X114244047Y-55872700D02*
X114101190Y-55906033D01*
X114101190Y-55906033D02*
X113863095Y-55906033D01*
X131344819Y-67213333D02*
X132059104Y-67213333D01*
X132059104Y-67213333D02*
X132201961Y-67260952D01*
X132201961Y-67260952D02*
X132297200Y-67356190D01*
X132297200Y-67356190D02*
X132344819Y-67499047D01*
X132344819Y-67499047D02*
X132344819Y-67594285D01*
X131440057Y-66784761D02*
X131392438Y-66737142D01*
X131392438Y-66737142D02*
X131344819Y-66641904D01*
X131344819Y-66641904D02*
X131344819Y-66403809D01*
X131344819Y-66403809D02*
X131392438Y-66308571D01*
X131392438Y-66308571D02*
X131440057Y-66260952D01*
X131440057Y-66260952D02*
X131535295Y-66213333D01*
X131535295Y-66213333D02*
X131630533Y-66213333D01*
X131630533Y-66213333D02*
X131773390Y-66260952D01*
X131773390Y-66260952D02*
X132344819Y-66832380D01*
X132344819Y-66832380D02*
X132344819Y-66213333D01*
X102765476Y-55439366D02*
X103479761Y-55439366D01*
X103051190Y-55139366D02*
X102765476Y-56039366D01*
X103384523Y-55739366D02*
X102670238Y-55739366D01*
X103098809Y-56039366D02*
X103384523Y-55139366D01*
X113886905Y-33006033D02*
X114363095Y-33006033D01*
X113791667Y-33206033D02*
X114125000Y-32506033D01*
X114125000Y-32506033D02*
X114458333Y-33206033D01*
D11*
%TO.C,8*%
X88795000Y-48520000D02*
X95255000Y-48520000D01*
X88795000Y-48550000D02*
X88795000Y-48520000D01*
X88795000Y-50450000D02*
X88795000Y-53050000D01*
X88795000Y-54980000D02*
X88795000Y-54950000D01*
X88795000Y-54980000D02*
X95255000Y-54980000D01*
X95255000Y-48520000D02*
X95255000Y-48550000D01*
X95255000Y-50450000D02*
X95255000Y-53050000D01*
X95255000Y-54980000D02*
X95255000Y-54950000D01*
%TO.C,5*%
X88795000Y-40940000D02*
X95255000Y-40940000D01*
X88795000Y-40970000D02*
X88795000Y-40940000D01*
X88795000Y-42870000D02*
X88795000Y-45470000D01*
X88795000Y-47400000D02*
X88795000Y-47370000D01*
X88795000Y-47400000D02*
X95255000Y-47400000D01*
X95255000Y-40940000D02*
X95255000Y-40970000D01*
X95255000Y-42870000D02*
X95255000Y-45470000D01*
X95255000Y-47400000D02*
X95255000Y-47370000D01*
%TO.C,1*%
X77745000Y-33360000D02*
X84205000Y-33360000D01*
X77745000Y-33390000D02*
X77745000Y-33360000D01*
X77745000Y-35290000D02*
X77745000Y-37890000D01*
X77745000Y-39820000D02*
X77745000Y-39790000D01*
X77745000Y-39820000D02*
X84205000Y-39820000D01*
X84205000Y-33360000D02*
X84205000Y-33390000D01*
X84205000Y-35290000D02*
X84205000Y-37890000D01*
X84205000Y-39820000D02*
X84205000Y-39790000D01*
%TO.C,3*%
X99845000Y-33360000D02*
X106305000Y-33360000D01*
X99845000Y-33390000D02*
X99845000Y-33360000D01*
X99845000Y-35290000D02*
X99845000Y-37890000D01*
X99845000Y-39820000D02*
X99845000Y-39790000D01*
X99845000Y-39820000D02*
X106305000Y-39820000D01*
X106305000Y-33360000D02*
X106305000Y-33390000D01*
X106305000Y-35290000D02*
X106305000Y-37890000D01*
X106305000Y-39820000D02*
X106305000Y-39790000D01*
%TO.C,J1*%
X123490000Y-43680000D02*
X123490000Y-42350000D01*
X124600000Y-43680000D02*
X123490000Y-43680000D01*
X126060000Y-34370000D02*
X125650000Y-34370000D01*
X126060000Y-35090000D02*
X125650000Y-35090000D01*
X126060000Y-36910000D02*
X125650000Y-36910000D01*
X126060000Y-37630000D02*
X125650000Y-37630000D01*
X126060000Y-39450000D02*
X125650000Y-39450000D01*
X126060000Y-40170000D02*
X125650000Y-40170000D01*
X126060000Y-41990000D02*
X125710000Y-41990000D01*
X126060000Y-42710000D02*
X125710000Y-42710000D01*
X126060000Y-43680000D02*
X126060000Y-33400000D01*
X134690000Y-33400000D02*
X126060000Y-33400000D01*
X134690000Y-36000000D02*
X126060000Y-36000000D01*
X134690000Y-38540000D02*
X126060000Y-38540000D01*
X134690000Y-41080000D02*
X126060000Y-41080000D01*
X134690000Y-41198100D02*
X126060000Y-41198100D01*
X134690000Y-41316195D02*
X126060000Y-41316195D01*
X134690000Y-41434290D02*
X126060000Y-41434290D01*
X134690000Y-41552385D02*
X126060000Y-41552385D01*
X134690000Y-41670480D02*
X126060000Y-41670480D01*
X134690000Y-41788575D02*
X126060000Y-41788575D01*
X134690000Y-41906670D02*
X126060000Y-41906670D01*
X134690000Y-42024765D02*
X126060000Y-42024765D01*
X134690000Y-42142860D02*
X126060000Y-42142860D01*
X134690000Y-42260955D02*
X126060000Y-42260955D01*
X134690000Y-42379050D02*
X126060000Y-42379050D01*
X134690000Y-42497145D02*
X126060000Y-42497145D01*
X134690000Y-42615240D02*
X126060000Y-42615240D01*
X134690000Y-42733335D02*
X126060000Y-42733335D01*
X134690000Y-42851430D02*
X126060000Y-42851430D01*
X134690000Y-42969525D02*
X126060000Y-42969525D01*
X134690000Y-43087620D02*
X126060000Y-43087620D01*
X134690000Y-43205715D02*
X126060000Y-43205715D01*
X134690000Y-43323810D02*
X126060000Y-43323810D01*
X134690000Y-43441905D02*
X126060000Y-43441905D01*
X134690000Y-43560000D02*
X126060000Y-43560000D01*
X134690000Y-43680000D02*
X126060000Y-43680000D01*
X134690000Y-43680000D02*
X134690000Y-33400000D01*
%TO.C,6*%
X99845000Y-40940000D02*
X106305000Y-40940000D01*
X99845000Y-40970000D02*
X99845000Y-40940000D01*
X99845000Y-42870000D02*
X99845000Y-45470000D01*
X99845000Y-47400000D02*
X99845000Y-47370000D01*
X99845000Y-47400000D02*
X106305000Y-47400000D01*
X106305000Y-40940000D02*
X106305000Y-40970000D01*
X106305000Y-42870000D02*
X106305000Y-45470000D01*
X106305000Y-47400000D02*
X106305000Y-47370000D01*
%TO.C,J5*%
X74510000Y-124170000D02*
X75840000Y-124170000D01*
X74510000Y-125500000D02*
X74510000Y-124170000D01*
X77110000Y-124170000D02*
X112730000Y-124170000D01*
X77110000Y-126830000D02*
X77110000Y-124170000D01*
X77110000Y-126830000D02*
X112730000Y-126830000D01*
X112730000Y-126830000D02*
X112730000Y-124170000D01*
%TO.C,7*%
X77745000Y-48520000D02*
X84205000Y-48520000D01*
X77745000Y-48550000D02*
X77745000Y-48520000D01*
X77745000Y-50450000D02*
X77745000Y-53050000D01*
X77745000Y-54980000D02*
X77745000Y-54950000D01*
X77745000Y-54980000D02*
X84205000Y-54980000D01*
X84205000Y-48520000D02*
X84205000Y-48550000D01*
X84205000Y-50450000D02*
X84205000Y-53050000D01*
X84205000Y-54980000D02*
X84205000Y-54950000D01*
%TO.C,B*%
X110895000Y-40940000D02*
X117355000Y-40940000D01*
X110895000Y-40970000D02*
X110895000Y-40940000D01*
X110895000Y-42870000D02*
X110895000Y-45470000D01*
X110895000Y-47400000D02*
X110895000Y-47370000D01*
X110895000Y-47400000D02*
X117355000Y-47400000D01*
X117355000Y-40940000D02*
X117355000Y-40970000D01*
X117355000Y-42870000D02*
X117355000Y-45470000D01*
X117355000Y-47400000D02*
X117355000Y-47370000D01*
%TO.C,0*%
X88795000Y-56100000D02*
X95255000Y-56100000D01*
X88795000Y-56130000D02*
X88795000Y-56100000D01*
X88795000Y-58030000D02*
X88795000Y-60630000D01*
X88795000Y-62560000D02*
X88795000Y-62530000D01*
X88795000Y-62560000D02*
X95255000Y-62560000D01*
X95255000Y-56100000D02*
X95255000Y-56130000D01*
X95255000Y-58030000D02*
X95255000Y-60630000D01*
X95255000Y-62560000D02*
X95255000Y-62530000D01*
%TO.C,J4*%
X74430000Y-98670000D02*
X75760000Y-98670000D01*
X74430000Y-100000000D02*
X74430000Y-98670000D01*
X77030000Y-98670000D02*
X112650000Y-98670000D01*
X77030000Y-101330000D02*
X77030000Y-98670000D01*
X77030000Y-101330000D02*
X112650000Y-101330000D01*
X112650000Y-101330000D02*
X112650000Y-98670000D01*
%TO.C,\u002A*%
X77745000Y-56100000D02*
X84205000Y-56100000D01*
X77745000Y-56130000D02*
X77745000Y-56100000D01*
X77745000Y-58030000D02*
X77745000Y-60630000D01*
X77745000Y-62560000D02*
X77745000Y-62530000D01*
X77745000Y-62560000D02*
X84205000Y-62560000D01*
X84205000Y-56100000D02*
X84205000Y-56130000D01*
X84205000Y-58030000D02*
X84205000Y-60630000D01*
X84205000Y-62560000D02*
X84205000Y-62530000D01*
%TO.C,2*%
X88795000Y-33360000D02*
X95255000Y-33360000D01*
X88795000Y-33390000D02*
X88795000Y-33360000D01*
X88795000Y-35290000D02*
X88795000Y-37890000D01*
X88795000Y-39820000D02*
X88795000Y-39790000D01*
X88795000Y-39820000D02*
X95255000Y-39820000D01*
X95255000Y-33360000D02*
X95255000Y-33390000D01*
X95255000Y-35290000D02*
X95255000Y-37890000D01*
X95255000Y-39820000D02*
X95255000Y-39790000D01*
%TO.C,9*%
X99845000Y-48520000D02*
X106305000Y-48520000D01*
X99845000Y-48550000D02*
X99845000Y-48520000D01*
X99845000Y-50450000D02*
X99845000Y-53050000D01*
X99845000Y-54980000D02*
X99845000Y-54950000D01*
X99845000Y-54980000D02*
X106305000Y-54980000D01*
X106305000Y-48520000D02*
X106305000Y-48550000D01*
X106305000Y-50450000D02*
X106305000Y-53050000D01*
X106305000Y-54980000D02*
X106305000Y-54950000D01*
%TO.C,4*%
X77745000Y-40940000D02*
X84205000Y-40940000D01*
X77745000Y-40970000D02*
X77745000Y-40940000D01*
X77745000Y-42870000D02*
X77745000Y-45470000D01*
X77745000Y-47400000D02*
X77745000Y-47370000D01*
X77745000Y-47400000D02*
X84205000Y-47400000D01*
X84205000Y-40940000D02*
X84205000Y-40970000D01*
X84205000Y-42870000D02*
X84205000Y-45470000D01*
X84205000Y-47400000D02*
X84205000Y-47370000D01*
%TO.C,C*%
X110895000Y-48520000D02*
X117355000Y-48520000D01*
X110895000Y-48550000D02*
X110895000Y-48520000D01*
X110895000Y-50450000D02*
X110895000Y-53050000D01*
X110895000Y-54980000D02*
X110895000Y-54950000D01*
X110895000Y-54980000D02*
X117355000Y-54980000D01*
X117355000Y-48520000D02*
X117355000Y-48550000D01*
X117355000Y-50450000D02*
X117355000Y-53050000D01*
X117355000Y-54980000D02*
X117355000Y-54950000D01*
%TO.C,D*%
X110895000Y-56100000D02*
X117355000Y-56100000D01*
X110895000Y-56130000D02*
X110895000Y-56100000D01*
X110895000Y-58030000D02*
X110895000Y-60630000D01*
X110895000Y-62560000D02*
X110895000Y-62530000D01*
X110895000Y-62560000D02*
X117355000Y-62560000D01*
X117355000Y-56100000D02*
X117355000Y-56130000D01*
X117355000Y-58030000D02*
X117355000Y-60630000D01*
X117355000Y-62560000D02*
X117355000Y-62530000D01*
%TO.C,J2*%
X133330000Y-61390000D02*
X134660000Y-61390000D01*
X133330000Y-62500000D02*
X133330000Y-61390000D01*
X133330000Y-63960000D02*
X153770000Y-63960000D01*
X133330000Y-72590000D02*
X133330000Y-63960000D01*
X133330000Y-72590000D02*
X153770000Y-72590000D01*
X133450000Y-72590000D02*
X133450000Y-63960000D01*
X133568095Y-72590000D02*
X133568095Y-63960000D01*
X133686190Y-72590000D02*
X133686190Y-63960000D01*
X133804285Y-72590000D02*
X133804285Y-63960000D01*
X133922380Y-72590000D02*
X133922380Y-63960000D01*
X134040475Y-72590000D02*
X134040475Y-63960000D01*
X134158570Y-72590000D02*
X134158570Y-63960000D01*
X134276665Y-72590000D02*
X134276665Y-63960000D01*
X134300000Y-63960000D02*
X134300000Y-63610000D01*
X134394760Y-72590000D02*
X134394760Y-63960000D01*
X134512855Y-72590000D02*
X134512855Y-63960000D01*
X134630950Y-72590000D02*
X134630950Y-63960000D01*
X134749045Y-72590000D02*
X134749045Y-63960000D01*
X134867140Y-72590000D02*
X134867140Y-63960000D01*
X134985235Y-72590000D02*
X134985235Y-63960000D01*
X135020000Y-63960000D02*
X135020000Y-63610000D01*
X135103330Y-72590000D02*
X135103330Y-63960000D01*
X135221425Y-72590000D02*
X135221425Y-63960000D01*
X135339520Y-72590000D02*
X135339520Y-63960000D01*
X135457615Y-72590000D02*
X135457615Y-63960000D01*
X135575710Y-72590000D02*
X135575710Y-63960000D01*
X135693805Y-72590000D02*
X135693805Y-63960000D01*
X135811900Y-72590000D02*
X135811900Y-63960000D01*
X135930000Y-72590000D02*
X135930000Y-63960000D01*
X136840000Y-63960000D02*
X136840000Y-63550000D01*
X137560000Y-63960000D02*
X137560000Y-63550000D01*
X138470000Y-72590000D02*
X138470000Y-63960000D01*
X139380000Y-63960000D02*
X139380000Y-63550000D01*
X140100000Y-63960000D02*
X140100000Y-63550000D01*
X141010000Y-72590000D02*
X141010000Y-63960000D01*
X141920000Y-63960000D02*
X141920000Y-63550000D01*
X142640000Y-63960000D02*
X142640000Y-63550000D01*
X143550000Y-72590000D02*
X143550000Y-63960000D01*
X144460000Y-63960000D02*
X144460000Y-63550000D01*
X145180000Y-63960000D02*
X145180000Y-63550000D01*
X146090000Y-72590000D02*
X146090000Y-63960000D01*
X147000000Y-63960000D02*
X147000000Y-63550000D01*
X147720000Y-63960000D02*
X147720000Y-63550000D01*
X148630000Y-72590000D02*
X148630000Y-63960000D01*
X149540000Y-63960000D02*
X149540000Y-63550000D01*
X150260000Y-63960000D02*
X150260000Y-63550000D01*
X151170000Y-72590000D02*
X151170000Y-63960000D01*
X152080000Y-63960000D02*
X152080000Y-63550000D01*
X152800000Y-63960000D02*
X152800000Y-63550000D01*
X153770000Y-72590000D02*
X153770000Y-63960000D01*
%TO.C,#*%
X99845000Y-56100000D02*
X106305000Y-56100000D01*
X99845000Y-56130000D02*
X99845000Y-56100000D01*
X99845000Y-58030000D02*
X99845000Y-60630000D01*
X99845000Y-62560000D02*
X99845000Y-62530000D01*
X99845000Y-62560000D02*
X106305000Y-62560000D01*
X106305000Y-56100000D02*
X106305000Y-56130000D01*
X106305000Y-58030000D02*
X106305000Y-60630000D01*
X106305000Y-62560000D02*
X106305000Y-62530000D01*
%TO.C,A*%
X110895000Y-33360000D02*
X117355000Y-33360000D01*
X110895000Y-33390000D02*
X110895000Y-33360000D01*
X110895000Y-35290000D02*
X110895000Y-37890000D01*
X110895000Y-39820000D02*
X110895000Y-39790000D01*
X110895000Y-39820000D02*
X117355000Y-39820000D01*
X117355000Y-33360000D02*
X117355000Y-33390000D01*
X117355000Y-35290000D02*
X117355000Y-37890000D01*
X117355000Y-39820000D02*
X117355000Y-39790000D01*
%TD*%
M02*
